<svg id="Layer_1" data-name="Layer 1" xmlns="http://www.w3.org/2000/svg" viewBox="0 0 64 63.98"><defs><style>.cls-1{fill:none;stroke:#6f9695;stroke-linecap:round;stroke-linejoin:round;stroke-width:2px;}</style></defs><title>secured-profile</title><line class="cls-1" x1="58.5" y1="36.2" x2="58.5" y2="12.7"/><path class="cls-1" d="M1,12.7V52.6a4.69,4.69,0,0,0,4.7,4.7H41.8M58.5,12.7H1V5.4A4.44,4.44,0,0,1,5.4,1H54.1a4.44,4.44,0,0,1,4.4,4.4Z"/><ellipse class="cls-1" cx="7.9" cy="6.9" rx="2.4" ry="2.3"/><ellipse class="cls-1" cx="15.1" cy="6.9" rx="2.4" ry="2.3"/><ellipse class="cls-1" cx="22.3" cy="6.9" rx="2.4" ry="2.3"/><path class="cls-1" d="M52.3,8.4H32.1a1.58,1.58,0,0,1-1.6-1.6h0a1.58,1.58,0,0,1,1.6-1.6H52.3a1.58,1.58,0,0,1,1.6,1.6h0A1.58,1.58,0,0,1,52.3,8.4ZM26,27.9a9,9,0,0,1-3,6.8,9.17,9.17,0,0,1-6.4,2.5,9.63,9.63,0,0,1-6.4-2.5A9.37,9.37,0,1,1,26,27.9Z"/><circle class="cls-1" cx="16.6" cy="25.2" r="2.9"/><path class="cls-1" d="M10.2,34.7a6.85,6.85,0,0,1,12.8,0"/><line class="cls-1" x1="34.9" y1="51.5" x2="6.4" y2="51.5"/><line class="cls-1" x1="33.3" y1="43.4" x2="6.4" y2="43.4"/><line class="cls-1" x1="34.4" y1="35.3" x2="31.5" y2="35.3"/><line class="cls-1" x1="48.8" y1="27.3" x2="31.5" y2="27.3"/><line class="cls-1" x1="31.6" y1="19.2" x2="53.1" y2="19.2"/><path class="cls-1" d="M61.7,37.2A1.71,1.71,0,0,1,63,38.8v1.8A29.92,29.92,0,0,1,59.9,54c-2.2,4.3-5.2,7.4-9.2,8.9a2,2,0,0,1-1.1,0c-4-1.5-7-4.6-9.2-8.9a29.32,29.32,0,0,1-3.1-13.4V38.8a1.6,1.6,0,0,1,1.3-1.6c4.6-1,8-2.9,10.4-5.6a1.63,1.63,0,0,1,2.4,0C53.7,34.3,57.1,36.2,61.7,37.2Z"/><path class="cls-1" d="M50.1,59.4c-2.7-1.2-4.9-3.5-6.7-7a25.32,25.32,0,0,1-2.7-11.8v-.4a22,22,0,0,0,9.5-4.9,22,22,0,0,0,9.5,4.9v.4A25.62,25.62,0,0,1,57,52.4C55,55.9,52.8,58.2,50.1,59.4Z"/><path class="cls-1" d="M51.8,48.3l.5,2.1a.66.66,0,0,1-.7.8h-3a.71.71,0,0,1-.7-.8l.5-2.2c0-.2,0-.5-.2-.6a2.58,2.58,0,0,1-.9-2.5,2.76,2.76,0,0,1,2.4-2.3,2.84,2.84,0,0,1,3.2,2.8,3.12,3.12,0,0,1-.9,2.1C51.8,47.9,51.7,48.1,51.8,48.3Z"/></svg>