<svg id="Layer_1" data-name="Layer 1" xmlns="http://www.w3.org/2000/svg" viewBox="0 0 32.02 34.5"><defs><style>.cls-1{fill:#a343ae;}</style></defs><title>support</title><path class="cls-1" d="M29.07,16.57a1.25,1.25,0,0,1-1.25-1.25V11.79c0-5-4.62-9-10.3-9s-10.3,4.05-10.3,9v3.53a1.25,1.25,0,0,1-2.5,0V11.79C4.72,5.43,10.47.25,17.52.25s12.8,5.18,12.8,11.54v3.53a1.25,1.25,0,0,1-1.23,1.25Z" transform="translate(-1.49 -0.25)"/><path class="cls-1" d="M25.69,28.33a1.25,1.25,0,0,1-1.25-1.25V15.21A1.25,1.25,0,0,1,25.69,14c4.31,0,7.82,3.23,7.82,7.19S30,28.33,25.69,28.33Zm1.25-11.74V25.7A4.87,4.87,0,0,0,31,21.15,4.85,4.85,0,0,0,26.94,16.59ZM9.31,28.33c-4.31,0-7.82-3.22-7.82-7.18S5,14,9.31,14a1.25,1.25,0,0,1,1.25,1.25V27.08A1.25,1.25,0,0,1,9.31,28.33ZM8.06,16.59A4.85,4.85,0,0,0,4,21.15,4.87,4.87,0,0,0,8.06,25.7Z" transform="translate(-1.49 -0.25)"/><path class="cls-1" d="M25.28,32.4H21.14a1.25,1.25,0,0,1,0-2.5h4.14a2.44,2.44,0,0,0,2.44-2.44h0v-.55a1.25,1.25,0,1,1,2.5,0v.55A4.94,4.94,0,0,1,25.28,32.4Z" transform="translate(-1.49 -0.25)"/><path class="cls-1" d="M19,34.75H16.53a3.42,3.42,0,0,1-3.42-3.42v-.14a3.43,3.43,0,0,1,3.42-3.41H19a3.41,3.41,0,0,1,3.41,3.41v.14A3.43,3.43,0,0,1,19,34.75Zm-2.45-4.47a.93.93,0,0,0-.92.91v.14a.92.92,0,0,0,.92.92H19a.93.93,0,0,0,.91-.92v-.14a.91.91,0,0,0-.91-.91Z" transform="translate(-1.49 -0.25)"/></svg>